<html>
<head>
<meta charset="UTF-8">
<meta name="viewport" content="width=device-width, initial-scale=1.0"/>

<style>
.comment
{
    padding-left: 20px;
    margin-top: 4px;
    margin-right: 4px;
    margin-bottom: 4px;
    border: 2px #000 solid;
}
.submission
{
    border: 4px #00f solid;
    padding-left: 20px;
}
.hidden
{
    display: none;
}
</style>
</head>
<body><div class="submission" id="t3_6ilyzl">
    <p class="userinfo">
        <a href="https://www.reddit.com/u/TheMrMcGibblets">TheMrMcGibblets</a>
        <span class="score"> | 24 points</span>
        <span class="timestamp"> | Jun 21 2017 13:57:23</span>
    </p>
    <strong>[TV] Better Call Saul S03E10 Lantern 1080p NF WEBRip DD5.1 x264 [1.28GB]</strong>
    <p><p>Add mega</p>
<p>.nz/#!8rZhFRDJ</p>
<p>!c6u4niMrtjrpj0JBB73ER0ULt3BGK_SpljwpnzNhsD4</p>
<pre><code>Video
ID                                       : 1
Format                                   : AVC
Format/Info                              : Advanced Video Codec
Format profile                           : Main@L4
Format settings, CABAC                   : Yes
Format settings, ReFrames                : 3 frames
Codec ID                                 : V_MPEG4/ISO/AVC
Duration                                 : 56mn 31s
Bit rate mode                            : Variable
Bit rate                                 : 2 870 Kbps
Maximum bit rate                         : 4 305 Kbps
Width                                    : 1 920 pixels
Height                                   : 1 080 pixels
Display aspect ratio                     : 16:9
Frame rate mode                          : Constant
Frame rate                               : 23.976 (24000/1001) fps
Color space                              : YUV
Chroma subsampling                       : 4:2:0
Bit depth                                : 8 bits
Scan type                                : Progressive
Bits/(Pixel*Frame)                       : 0.058
Stream size                              : 1.13 GiB (88%)
Writing library                          : x264 core 118
Encoding settings                        : cabac=1 / ref=3 / deblock=1:0:0 / analyse=0x1:0x111 / me=umh / subme=10 / psy=1 / psy_rd=1.00:0.00 / mixed_ref=1 / me_range=24 / chroma_me=1 / trellis=2 / 8x8dct=0 / cqm=0 / deadzone=21,11 / fast_pskip=1 / chroma_qp_offset=-2 / threads=8 / sliced_threads=0 / nr=0 / decimate=1 / interlaced=0 / bluray_compat=0 / constrained_intra=0 / bframes=2 / b_pyramid=0 / b_adapt=2 / b_bias=0 / direct=3 / weightb=1 / open_gop=0 / weightp=2 / keyint=48 / keyint_min=25 / scenecut=0 / intra_refresh=0 / rc_lookahead=0 / rc=2pass / mbtree=1 / bitrate=2870 / ratetol=1.0 / qcomp=0.50 / qpmin=6 / qpmax=51 / qpstep=4 / cplxblur=20.0 / qblur=0.5 / vbv_maxrate=4305 / vbv_bufsize=5740 / nal_hrd=vbr / ip_ratio=1.40 / aq=1:1.00
Default                                  : Yes
Forced                                   : No

Audio
ID                                       : 2
Format                                   : AC-3
Format/Info                              : Audio Coding 3
Mode extension                           : CM (complete main)
Format settings, Endianness              : Big
Codec ID                                 : A_AC3
Duration                                 : 56mn 31s
Bit rate mode                            : Constant
Bit rate                                 : 384 Kbps
Channel(s)                               : 6 channels
Channel positions                        : Front: L C R, Side: L R, LFE
Sampling rate                            : 48.0 KHz
Frame rate                               : 31.250 fps (1536 spf)
Compression mode                         : Lossy
Delay relative to video                  : -42ms
Stream size                              : 155 MiB (12%)
Language                                 : English
Default                                  : Yes
Forced                                   : No

Text #1
ID                                       : 3
Format                                   : UTF-8
Codec ID                                 : S_TEXT/UTF8
Codec ID/Info                            : UTF-8 Plain Text
Duration                                 : 1mn 16s
Bit rate                                 : 26 bps
Count of elements                        : 9
Stream size                              : 257 Bytes (0%)
Title                                    : Forced
Language                                 : English
Default                                  : Yes
Forced                                   : Yes

Text #2
ID                                       : 4
Format                                   : UTF-8
Codec ID                                 : S_TEXT/UTF8
Codec ID/Info                            : UTF-8 Plain Text
Duration                                 : 53mn 26s
Bit rate                                 : 45 bps
Count of elements                        : 530
Stream size                              : 17.9 KiB (0%)
Language                                 : English
Default                                  : No
Forced                                   : No
</code></pre></p>
    <p class="toolbar">
        <a href="https://www.reddit.com/r/megalinks/comments/6ilyzl">permalink</a>
    </p>
</div>
<div class="comment" id="t1_dj7huxa">
    <p class="userinfo">
        <a
        class="toggle_hide_button"
        href="javascript:void(0)"
        onclick="toggle_collapse(this.parentElement.parentElement)">[-]
        </a>
        <a href="https://www.reddit.com/u/joshmaaaaaaans">joshmaaaaaaans</a>
        <span class="score"> | 2 points</span>
        <span class="timestamp"> | Jun 21 2017 17:02:54</span>
    </p>
    <div class="collapsible">
        <p>:'(</p>
        <p class="toolbar">
            <a href="https://www.reddit.com/r/megalinks/comments/6ilyzl/_/dj7huxa">permalink</a>
        </p>
        <div class="comment" id="t1_dj8dmva">
    <p class="userinfo">
        <a
        class="toggle_hide_button"
        href="javascript:void(0)"
        onclick="toggle_collapse(this.parentElement.parentElement)">[-]
        </a>
        <a href="https://www.reddit.com/u/bummageness1">bummageness1</a>
        <span class="score"> | 2 points</span>
        <span class="timestamp"> | Jun 22 2017 03:12:26</span>
    </p>
    <div class="collapsible">
        <p>Fuck Chuck</p>
        <p class="toolbar">
            <a href="https://www.reddit.com/r/megalinks/comments/6ilyzl/_/dj8dmva">permalink</a>
        </p>
        
    </div>
</div>
    </div>
</div>

<div class="comment" id="t1_dj77q2u">
    <p class="userinfo">
        <a
        class="toggle_hide_button"
        href="javascript:void(0)"
        onclick="toggle_collapse(this.parentElement.parentElement)">[-]
        </a>
        <a href="https://www.reddit.com/u/SubZorro">SubZorro</a>
        <span class="score"> | 1 points</span>
        <span class="timestamp"> | Jun 21 2017 13:59:04</span>
    </p>
    <div class="collapsible">
        <h5>Subtitles for this episode:</h5>
<hr>
<blockquote>
<ul>
<li>
<p><strong>Better.Call.Saul.S03E10.CONVERT.1080p.WEB.h264-TBS</strong> - <code>1 CD</code> - <a href="http://dl.opensubtitles.org/en/download/vrf-24904b31/sub/7017890">Download Subtitle</a></p>
</li>
<li>
<p><strong>Better.Call.Saul.S03E10.HDTV.x264-SVA</strong> - <code>1 CD</code> - <a href="http://dl.opensubtitles.org/en/download/vrf-cca803a6/sub/7017937">Download Subtitle</a></p>
</li>
<li>
<p><strong>Better.Call.Saul.S03E10.720p.HDTV.x264-AVS</strong> - <code>1 CD</code> - <a href="http://dl.opensubtitles.org/en/download/vrf-5686e8ac/sub/7017833">Download Subtitle</a></p>
</li>
<li>
<p><strong>Better.Call.Saul.S03E10.1080p.WEB-DL.DD5.1.H264-RARBG</strong> - <code>1 CD</code> - <a href="http://dl.opensubtitles.org/en/download/vrf-0b3fc3e1/sub/7017827">Download Subtitle</a></p>
</li>
<li>
<p><strong>Better.Call.Saul.S03E10.WEB-DL.x264-RARBG</strong> - <code>1 CD</code> - <a href="http://dl.opensubtitles.org/en/download/vrf-f4f74264/sub/7017945">Download Subtitle</a></p>
</li>
</ul>
</blockquote>
<hr>
<p>^This ^list ^of ^subtitles ^are ^taken ^from <a href="http://www.opensubtitles.org">^opensubtitles.org</a> ^| ^For ^feedback ^or ^suggestions ^contact <a href="http://www.reddit.com/message/compose/?to=indigo6alpha">^/u/indigo6alpha</a></p>
        <p class="toolbar">
            <a href="https://www.reddit.com/r/megalinks/comments/6ilyzl/_/dj77q2u">permalink</a>
        </p>
        
    </div>
</div>
</body>

<script>
function toggle_collapse(comment_div)
{
    var button = comment_div.getElementsByClassName("toggle_hide_button")[0];
    var collapsible = comment_div.getElementsByClassName("collapsible")[0];
    if (collapsible.classList.contains("hidden"))
    {
        collapsible.classList.remove("hidden");
        button.innerText = "[-]";
    }
    else
    {
        collapsible.classList.add("hidden");
        button.innerText = "[+]";
    }
}
</script>
</html>
